<?xml version="1.0" encoding="UTF-8" standalone="no"?>
<svg xmlns:svg="http://www.w3.org/2000/svg" xmlns="http://www.w3.org/2000/svg" viewBox="0 0 88.320999 88.473007" version="1.1">
  <path d="M 44.084,0 C 20.847,0 1.81,17.917999 0,40.688999 l 23.71,9.803 c 2.009,-1.374 4.436,-2.178 7.047,-2.178 0.234,0 0.467,0.007 0.698,0.02 L 41.999,33.050997 c 0,-0.073 -9.8e-4,-0.144 -9.8e-4,-0.216 0,-9.198999 7.483,-16.683 16.683,-16.683 9.199,0 16.682,7.484001 16.682,16.683 0,9.199 -7.483,16.684 -16.682,16.684 -0.127,0 -0.253,-0.003 -0.379,-0.006 L 43.264,60.242998 c 0.008,0.196 0.015,0.394 0.015,0.592 0,6.906 -5.617,12.523 -12.522,12.523 -6.061,0 -11.129,-4.327 -12.277,-10.055 L 1.524,56.291999 c 5.25,18.568999 22.309,32.181005 42.56,32.181005 24.432,0 44.237,-19.806005 44.237,-44.236005 C 88.321,19.804999 68.516,0 44.084,0" fill="#231f20" />
  <path d="m 27.7221,67.122498 -5.434,-2.245 c 0.963,2.005 2.629,3.683001 4.841,4.606 4.782,1.992 10.295,-0.277 12.288,-5.062 0.965,-2.314999 0.971,-4.87 0.014,-7.189999 -0.955,-2.321 -2.757,-4.131 -5.074,-5.097 -2.299,-0.957 -4.762,-0.921 -6.926,-0.105 l 5.613,2.321 c 3.527,1.469999 5.195,5.519999 3.725,9.047 -1.468,3.526999 -5.52,5.194999 -9.047,3.724999" fill="#231f20" />
  <path d="m 50.3485,32.815599 c 0,-4.612 3.739,-8.35 8.351,-8.35 4.612,0 8.351,3.738 8.351,8.35 0,4.612 -3.739,8.35 -8.351,8.35 -4.612,0 -8.351,-3.738 -8.351,-8.35 m 19.448,0.019 c 0,-6.129 -4.986,-11.115999 -11.116,-11.115999 -6.129,0 -11.116,4.986999 -11.116,11.115999 0,6.13 4.987,11.115 11.116,11.115 6.13,0 11.116,-4.985 11.116,-11.115" fill="#231f20" />
</svg>
